<?xml version="1.0" encoding="utf-8"?>
<!-- Generator: Adobe Illustrator 21.1.0, SVG Export Plug-In . SVG Version: 6.00 Build 0)  -->
<svg version="1.1" xmlns="http://www.w3.org/2000/svg" xmlns:xlink="http://www.w3.org/1999/xlink" x="0px" y="0px"
	 viewBox="0 0 160 200" style="enable-background:new 0 0 160 200;" xml:space="preserve">
<style type="text/css">
	.st0{fill:#420000;}
</style>
<g id="Layer_1">
</g>
<g id="Layer_2">
	<path class="st0" d="M149.4,62.6c0-3.7-2.3-5.2-2.2-6.6c0.1-1.4,1.6-3.6-2.7-6.5c-5.6-3.7-8.2-21.4-15.4-19c-3.1,1,3,15.3-1.9,14.7
		c-12-1.4-23,12.1-27.1,21.8c0,0,2-5.5,0.6-11.4c-1.5-5.9-4.4-7.9-3.4-10.5c0.9-2.6,1.2-3.6-1.5-6.9c-2.7-3.3-5.3-6.3-6.2-7.7
		c-0.9-1.4,0.4-3.9-3.2-5c-3.6-1.1-4.1-5.5-2-8.6c2-3.2,0.6-5.7-2.8-5.4c-3.4,0.3-7.9,5.7-9.9,13.7c-0.6,2.6-2,0.1-3,1.6
		c-0.9,1.5-0.2,2.1-1.3,2.5c-1.1,0.4-0.4,2.8-0.8,3.2c-0.5,0.5-3.2,2.1-2.4,5.6c0.7,3.4,3.4,1.9,5.6,4.8c2.2,3,2.8,3.1,1.6,3.4
		c-1.2,0.3-1,1.2-0.8,2c0.2,0.8,0.8,2.1,0.3,3.5c-0.6,1.4-4.2,2.5-4.2,4.2c0,1.7,5.2,1,5.6,1.2c0.8,0.5-13,10.5-13,17.5
		c0,9.6,11.8,13.5,12.7,13.6c1,0.1-6.8,2.2-9,3.5c-2.2,1.3-10.4-1.2-10.4-8.2c0-7.1-2.4-21.1-19.4-21.1C19.9,62.5,13,75.1,13,84.9
		c0,5.3,3.4,11,10.1,11c6.8,0,7.7-6,7.7-9.2c0-3.1-3.5-4.2-5.3-4.2c-1.8,0-2.1,0.2-2.1,0.2s0.6,0.9,0.4,1.8c0,0,2-0.3,2,2
		s-2.4,2.1-3.2,2.1c-2.1-0.1-3-4.4-1.6-7.5c0.9-2.1,5-9,12.7-9c0,0,8-0.2,8,7.9c0,8.2,0.7,21.1,9.2,23.7c8.6,2.6,16.8,2.7,16.8,2.7
		s-0.8,4.4-0.3,7.6c0,0-1.5-0.3-5-0.3c-4.7,0-11.3,5.4-11.3,13.5c0,6.5,6.6,8.1,6.6,8.1s-2.5,5-9.2,10.9
		c-6.7,5.9-25.1,14.6-25.1,28.5s12.7,16,12.7,16c4.3,0.6,8.8,0.2,8.8,0.2s0.3,1.8,1.1,2.4c0,0,2.1-0.5,3.2-1.9c0,0,3.5,1.5,5.9,1.4
		c0,0,2.6,0.4,2.7,2.3c0,0,1.9-2.7,1.9-5.6c0,0,7.3-0.6,10,1.3s1.2-0.8,0.9-1.5c0,0,4.2,0.7,6.3,0.1c0,0-2.3,4.1,6.3,5.3
		c4.4,0.6,0.4-1.8-1-3.6c-1.4-1.7,8.2-1.8,8.2-1.8s1,2.7,2.2,3.9c1.2,1.1,2.3,0.4,2.6-0.6c0,0,2.8-1.1,2.9-2.2c0,0,3.6,1.6,7,1.8
		c3.4,0.2,6.7,0.9,6.7,1.8s0.6,1.8,1.1,0.2c0.5-1.6-0.1-4.3-0.9-4.8c-3-1.5-5.1-4.8-6.5-6.1c0,0,7.4-4.8,7.4-11.2
		c0-6.4-8.2-9.7-8.2-9.7s7.6-2.2,7.6-6.9c0-11.3-10.7-22.3-10.7-22.3s6.4-4.2,6.4-13.2s-7.3-19.3-12-22.8c0,0,1-2.1,2.2-3.2
		c0,0,2.7,1.6,7,0.4c10.8-3,14.3-22.1,19.5-22.1c5.2,0,3.2,8.3,4.7,8.3c1.6,0,3.9-2,3.9-6.2c0-4.2-5.3-6.8-5.3-7.6s6.6,2.1,6.7,1.3
		c0.1-0.8,1.3-1.6,3.3-0.8c2,0.7,6.7,3.5,7.6,1.5c0.9-2-1.5-2.9-1.5-2.9S149.4,66.3,149.4,62.6z M46.9,164.7
		c-0.6,2-0.1,11.3-0.1,11.3s-5.4,4.1-8.8,5.4c-3.3,1.3-6-1.6-6.2-5.7c-0.3-4.9,6.8-8.9,9.2-9.8c2.4-0.9,8-5.7,8-5.7
		S47.5,162.6,46.9,164.7z M99.9,168.6c1.2,0,6.3,0.1,6.3,4.2c0,4-5.4,6.3-5.5,5.7c-0.1-0.6-1.8-3.2-2.2-5.8
		C97.9,169.1,98.7,168.6,99.9,168.6z M89,117.1c0.4-2,1.2-1.8,1.7-1.1c0.5,0.7,1,1.4,2.5,2.7c1.5,1.2,1.7,5.4,1.7,5.4
		s-2.4,0.1-4.8-1.6S88.7,118.9,89,117.1z M68.9,74.9c0-4.9,9.5-10.2,9.3-15.4c-0.1-1.6-0.1-1.8-1-3.6c-0.9-1.7-0.4-1.5,0.7-1.8
		c1.1-0.3,4.9-2.9,4.9-2.9c4.6,1.1,5.4,6.6,5.4,11.8s-7.5,14-7.5,14S68.9,79.7,68.9,74.9z M92.5,181.4c-2,1.5-6.8,3.7-8.2,4
		c-1.4,0.3-5.4,2.1-6.1,2.8c-0.8,0.7-4.9,0.8-6.8,0.6c-1.9-0.2-1.2-1.2-2.6-1.2c-1.4,0-1.6-1.1-2.6-1.2c-1-0.1-7.7-4.5-8.9-5.9
		c1.5-2.5,22.7-11,31.8-12C89.8,168.4,94.5,180,92.5,181.4z M96.9,151.7c0,0-2.4,1.3-2.9,3.3c-0.2,0.7-0.8,2.9-2.1,3.1
		c-1.3,0.2-3.8,2.3-3.8,2.3c-14.6,1.6-27.7,9-29.3,9.9c-1.6,0.9-3.9,0.6-3-0.1c0.9-0.6,1.5-5.8,1.5-5.8c2.5,2.2,6.2,2.1,6.2,2.1
		c8.1-3.5,6.7-17.1,6.4-19.2c-0.3-2.1,1-2.1,2.8-2.4c1.8-0.2,3.3-2.6,4-3.2c1.1-0.8,4.3-4.5,5.1-4.4c0.8,0.1,5.4,4.8,8.4,7.4
		C92.3,146.2,96.9,151.7,96.9,151.7z"/>
</g>
</svg>
