<?xml version="1.0" encoding="utf-8"?>
<!-- Generator: Adobe Illustrator 21.1.0, SVG Export Plug-In . SVG Version: 6.00 Build 0)  -->
<svg version="1.1" xmlns="http://www.w3.org/2000/svg" xmlns:xlink="http://www.w3.org/1999/xlink" x="0px" y="0px"
	 viewBox="0 0 1920 1080" style="enable-background:new 0 0 1920 1080;" xml:space="preserve">
<style type="text/css">
	.st0{display:none;}
	.st1{fill:none;stroke:url(#SVGID_1_);stroke-width:3.7;stroke-linecap:round;stroke-linejoin:round;stroke-miterlimit:10;}
	.st2{fill:none;stroke:url(#SVGID_2_);stroke-width:3.7;stroke-linecap:round;stroke-linejoin:round;stroke-miterlimit:10;}
	.st3{fill:none;stroke:url(#SVGID_3_);stroke-width:3.7;stroke-linecap:round;stroke-linejoin:round;stroke-miterlimit:10;}
	.st4{fill:none;stroke:url(#SVGID_4_);stroke-width:3.7;stroke-linecap:round;stroke-linejoin:round;stroke-miterlimit:10;}
	.st5{fill:none;stroke:url(#SVGID_5_);stroke-width:3.7;stroke-linecap:round;stroke-linejoin:round;stroke-miterlimit:10;}
	.st6{fill:none;stroke:url(#SVGID_6_);stroke-width:3.7;stroke-linecap:round;stroke-linejoin:round;stroke-miterlimit:10;}
	.st7{fill:none;stroke:url(#SVGID_7_);stroke-width:3.7;stroke-linecap:round;stroke-linejoin:round;stroke-miterlimit:10;}
	.st8{fill:none;stroke:#E81E25;stroke-width:3.7;stroke-linecap:round;stroke-linejoin:round;stroke-miterlimit:10;}
	.st9{fill:none;stroke:url(#SVGID_8_);stroke-width:3.7;stroke-linecap:round;stroke-linejoin:round;stroke-miterlimit:10;}
	.st10{fill:none;stroke:url(#SVGID_9_);stroke-width:3.7;stroke-linecap:round;stroke-linejoin:round;stroke-miterlimit:10;}
	.st11{fill:none;stroke:url(#SVGID_10_);stroke-width:3.7;stroke-linecap:round;stroke-linejoin:round;stroke-miterlimit:10;}
	.st12{fill:none;stroke:#E81E25;stroke-width:3.7;stroke-miterlimit:10;}
	.st13{fill:none;stroke:url(#SVGID_11_);stroke-width:3.7;stroke-miterlimit:10;}
	.st14{fill:none;stroke:url(#SVGID_12_);stroke-width:3.7;stroke-linecap:round;stroke-linejoin:round;stroke-miterlimit:10;}
	.st15{fill:none;stroke:url(#SVGID_13_);stroke-width:3.7;stroke-linecap:round;stroke-linejoin:round;stroke-miterlimit:10;}
</style>
<g id="Layer_1" class="st0">
	
		<image style="display:inline;overflow:visible;" width="1622" height="811" xlink:href="st-logo.png"  transform="matrix(1 0 0 1 124.7244 108.7787)">
	</image>
</g>
<g id="Layer_2">
	<linearGradient id="SVGID_1_" gradientUnits="userSpaceOnUse" x1="487.1079" y1="347.069" x2="1356.7533" y2="347.069">
		<stop  offset="0.6412" style="stop-color:#E62227"/>
		<stop  offset="0.7799" style="stop-color:#B82025"/>
		<stop  offset="1" style="stop-color:#E62227"/>
	</linearGradient>
	<rect x="489" y="341.3" class="st1" width="865.9" height="11.5"/>
	<linearGradient id="SVGID_2_" gradientUnits="userSpaceOnUse" x1="485.324" y1="451.2183" x2="610.9312" y2="451.2183">
		<stop  offset="6.273091e-02" style="stop-color:#B82025"/>
		<stop  offset="6.837136e-02" style="stop-color:#BB2025"/>
		<stop  offset="0.1155" style="stop-color:#CD2126"/>
		<stop  offset="0.1733" style="stop-color:#DA2127"/>
		<stop  offset="0.253" style="stop-color:#E32227"/>
		<stop  offset="0.4565" style="stop-color:#E62227"/>
		<stop  offset="0.689" style="stop-color:#B82025"/>
		<stop  offset="0.9234" style="stop-color:#E62227"/>
	</linearGradient>
	<path class="st2" d="M594.8,371.5c0,0-2.4,1.9-5.7,1.9s-16-7-50.8-7c-34.9,0-50.1,25.6-50.1,49.9c0,59.4,79.9,39.9,79.9,78.8
		c0,15.8-11.1,24.3-34.3,24.3c-21.7,0-37.3-29.8-37.3-37.7h-5.7l-3.6,54.5c0,0,6.4-6.6,10.9-6.6c4.5,0,18.5,6.4,35.6,6.4
		s75.8,3.2,75.4-58.8c-0.4-55-86.5-43.6-81.2-76.5c1.5-9.4,10.2-17,22.4-17c21.7,0,37.9,25.1,37.9,25.1L594.8,371.5z"/>
	<linearGradient id="SVGID_3_" gradientUnits="userSpaceOnUse" x1="1128.882" y1="596.8049" x2="1228.4705" y2="596.8049">
		<stop  offset="6.273091e-02" style="stop-color:#B82025"/>
		<stop  offset="6.837136e-02" style="stop-color:#BB2025"/>
		<stop  offset="0.1155" style="stop-color:#CD2126"/>
		<stop  offset="0.1733" style="stop-color:#DA2127"/>
		<stop  offset="0.253" style="stop-color:#E32227"/>
		<stop  offset="0.4565" style="stop-color:#E62227"/>
		<stop  offset="0.689" style="stop-color:#B82025"/>
		<stop  offset="0.9234" style="stop-color:#E62227"/>
	</linearGradient>
	<path class="st3" d="M1212.3,531.4c-9,7.8-22.8-0.9-40.7-0.2c-27.9,1.1-39.3,20.5-38.5,40c2,47.6,61,28.3,62.3,59.4
		c0.5,12.6-10,19.3-26.7,19.3c-21.3,0-34.5-25-34.8-31.3l-3.3,0.1l1.5,42.7c0,0,4.7-4,8.3-4.2c3.6-0.1,16.1,5.7,29.9,5.1
		c13.7-0.6,56.2,2.5,56.2-47.3c0-41.1-62.7-29.4-62.7-56.1c0-9.8,9.2-14.5,19-14.5c16.2,0,28.7,19.4,28.7,19.4l2-0.1
		C1213.5,563.8,1212.3,540.2,1212.3,531.4z"/>
	<linearGradient id="SVGID_4_" gradientUnits="userSpaceOnUse" x1="593.9199" y1="435.9014" x2="695.8846" y2="435.9014">
		<stop  offset="0.2858" style="stop-color:#E62227"/>
		<stop  offset="0.3277" style="stop-color:#D72127"/>
		<stop  offset="0.4265" style="stop-color:#C02026"/>
		<stop  offset="0.4907" style="stop-color:#B82025"/>
		<stop  offset="1" style="stop-color:#E62227"/>
	</linearGradient>
	<path class="st4" d="M602,371.5l-6.2,35.9l1.7,0.3c0,0,9.4-24.2,31.8-24.2c0,0,0.1,77.8,0.1,93.5s-4,22.1-13,22.1v1.3h57v-1.6
		c0,0-12.3-0.8-12.3-16.7c0-15.9-0.4-98-0.4-98s22-1.3,31.3,22.4h2l-5.5-34.4L602,371.5z"/>
	<linearGradient id="SVGID_5_" gradientUnits="userSpaceOnUse" x1="693.6129" y1="436.4072" x2="1011.1633" y2="436.4072">
		<stop  offset="0" style="stop-color:#B82025"/>
		<stop  offset="4.094657e-03" style="stop-color:#BB2025"/>
		<stop  offset="3.833666e-02" style="stop-color:#CD2126"/>
		<stop  offset="8.027601e-02" style="stop-color:#DA2127"/>
		<stop  offset="0.1381" style="stop-color:#E32227"/>
		<stop  offset="0.2858" style="stop-color:#E62227"/>
		<stop  offset="0.3277" style="stop-color:#D72127"/>
		<stop  offset="0.4265" style="stop-color:#C02026"/>
		<stop  offset="0.4907" style="stop-color:#B82025"/>
		<stop  offset="0.6419" style="stop-color:#E62227"/>
		<stop  offset="0.6967" style="stop-color:#D72127"/>
		<stop  offset="0.8262" style="stop-color:#C02026"/>
		<stop  offset="0.9103" style="stop-color:#B82025"/>
		<stop  offset="1" style="stop-color:#E62227"/>
	</linearGradient>
	<path class="st5" d="M695.5,373.3v2.1c0,0,8.5,3.8,8.4,14s0.2,82.5,0.2,90c0,12.3-3.3,17.8-8.6,17.8v2.4h48.2v-2.6
		c0,0-9,0.7-9-18.1c0-18.8,0-37.1,0-37.1l7.3-3.4c0,0,23.8,37.4,24.3,51c0.2,6.2-7,7.8-7,7.8v2.6h68.3v-2.6c0,0-8.5-2.6-8.5-8.8
		c0-6.2,8.4-31.9,10.5-37.9c12.1-1.4,40.4,10.5,40.4,35.1c0,9.4-8.9,10.9-8.9,10.9v3.2h75.7v-3.5c0,0-9.2,1.6-9.2-16.7
		s-1-89.4-1-89.4s51.6,71.5,55.1,76.4c3.5,4.8,5.8,10.7,5.8,15.8c0,9.7-8,14.4-8,14.4v2.5h29.9v-3c0,0-9.2-1.4-9-14.8
		c0.1-13.4,0-86.1,0-90.7c0-4.6,3.1-14.6,8.2-14.6v-2.7h-29.3v2.7c0,0,9.9,2.7,9.9,14.6c0,12,0,33.4,0,33.4s-23.9-33.2-26.2-37.3
		c-2.3-4.1,1.3-9.3,3.2-10.3v-2.7h-58.9v2.3c0,0,8.3,2.4,8.3,13.9s0.7,81.7,0.7,86.9c0,11.5-2.4,16.3-5.6,18.2
		c-4.9-4.4-8.3-10.7-10-18.9c-1.7-8.2-22.9-83.8-24.2-88.6c-3-10.7,2.4-10.8,2.4-10.8v-3.1h-45.2v2.3c0,0,5.2,3.1,3.9,9.7
		c-1.3,6.6-27.6,87.1-30.1,93.3s-3.4,11.3-4.7,10.4c-1.3-0.9-14.9-49.7-32-63.9c0,0,24.1-13.4,24.1-33.7c0-20.3-20-18.1-30.5-18.1
		C753.7,373.5,695.6,373.4,695.5,373.3z"/>
	<linearGradient id="SVGID_6_" gradientUnits="userSpaceOnUse" x1="907.4705" y1="596.9788" x2="1014.7218" y2="596.9788">
		<stop  offset="0.2858" style="stop-color:#E62227"/>
		<stop  offset="0.3277" style="stop-color:#D72127"/>
		<stop  offset="0.4265" style="stop-color:#C02026"/>
		<stop  offset="0.4907" style="stop-color:#B82025"/>
		<stop  offset="1" style="stop-color:#E62227"/>
	</linearGradient>
	<path class="st6" d="M939.7,659.3l-0.1-2.4c0,0-8.5,1.6-8.5-16.7c0-18.3-1-89.4-1-89.4s51.6,71.5,55.1,76.4
		c3.5,4.8,5.8,10.7,5.8,15.8c0,9.7-8,14.4-8,14.4v2.5h29.9v-3c0,0-9.2-1.4-9-14.8c0.1-13.4,0-86.1,0-90.7c0-4.6,3.1-14.6,8.2-14.6
		v-2.7h-29.3v2.7c0,0,9.9,2.7,9.9,14.6c0,12,0,33.4,0,33.4s-23.9-33.2-26.2-37.3c-2.3-4.1,1.3-9.3,3.2-10.3v-2.7h-58.9v2.3
		c0,0,8.3,2.4,8.3,13.9c0,11.5,0.3,80.8,0.5,86c0.4,12.2-3.6,20.2-10.3,20.2v2.4C909.3,659.3,939.9,659.1,939.7,659.3z"/>
	<linearGradient id="SVGID_7_" gradientUnits="userSpaceOnUse" x1="1220.6237" y1="454.7325" x2="1376.6289" y2="454.7325">
		<stop  offset="0" style="stop-color:#B82025"/>
		<stop  offset="8.521820e-02" style="stop-color:#CC2126"/>
		<stop  offset="0.1659" style="stop-color:#E62227"/>
		<stop  offset="0.5122" style="stop-color:#B82025"/>
		<stop  offset="0.7235" style="stop-color:#CC2126"/>
		<stop  offset="0.9234" style="stop-color:#E62227"/>
	</linearGradient>
	<path class="st7" d="M1364,524.7c-1.1-1.8-19.4-65-41.8-83.4c0,0,31.5-17.5,31.5-44c0-26.6-26.1-23.6-39.9-23.6s-89.8-0.2-89.9-0.3
		v2.7c0,0,11.1,4.9,10.9,18.3c-0.1,13.3,0.3,107.7,0.3,117.6c0,16-5.7,20.9-12.6,20.9v3.1l63.8,0.4v-3.4c0,0-11.3-0.8-11.3-21.7
		c0-24.5-0.7-49.8-0.7-49.8l9.6-4.5c0,0,30.9,49.3,31.5,66.9c0.3,8.1-9.8,8.5-9.8,8.5v3.4h69.1v-3.4
		C1374.8,532.1,1368.7,532.2,1364,524.7z"/>
	<path class="st8" d="M734.9,429.2c0,0,0-24.8,0-33.9s5.7-11.3,11.8-11.3s16.5,2.4,16.5,15C763.2,414.6,748.2,429.2,734.9,429.2z"/>
	<path class="st8" d="M833,436c0,0,15.1,0.4,26.8,11.5l-14.3-53.6L833,436z"/>
	<path class="st8" d="M1275,445.3c0,0,0-32.1,0-43.8c0-11.7,7.4-14.6,15.3-14.6c7.9,0,21.3,3.1,21.3,19.4
		C1311.6,426.3,1292.2,445.3,1275,445.3z"/>
	<linearGradient id="SVGID_8_" gradientUnits="userSpaceOnUse" x1="1006.4586" y1="434.2856" x2="1127.041" y2="434.2856">
		<stop  offset="6.273091e-02" style="stop-color:#B82025"/>
		<stop  offset="6.837136e-02" style="stop-color:#BB2025"/>
		<stop  offset="0.1155" style="stop-color:#CD2126"/>
		<stop  offset="0.1733" style="stop-color:#DA2127"/>
		<stop  offset="0.253" style="stop-color:#E32227"/>
		<stop  offset="0.4565" style="stop-color:#E62227"/>
		<stop  offset="0.689" style="stop-color:#B82025"/>
		<stop  offset="0.9234" style="stop-color:#E62227"/>
	</linearGradient>
	<path class="st9" d="M1103.2,369.6l3.9,43.1h-1.9c0,0-6-29.8-36.8-29.8s-31.7,46.5-31.7,53c0,15,8.7,53.2,33.9,53.2
		c18.9,0,14.8-21.8,14.8-36.6c0-21.2-3-25.8-9.6-25.8v-2.7h49.3v3.3c0,0-10.1-0.6-10.1,12.6s0,23.1,0,39.3c0,16.2,7.7,16.7,7.7,16.7
		v3.2c0,0-34.4,0-54.9,0c-39.5,0-54.4-25.2-59.6-39.7v-54.8c0,0,9.1-34.1,55.2-34.1c17.3,0,20,4.4,29.9,4.4
		C1102.3,374.8,1103.2,369.6,1103.2,369.6z"/>
	<linearGradient id="SVGID_9_" gradientUnits="userSpaceOnUse" x1="1009.707" y1="595.1076" x2="1130.2893" y2="595.1076">
		<stop  offset="2.670874e-02" style="stop-color:#B82025"/>
		<stop  offset="0.2858" style="stop-color:#E62227"/>
		<stop  offset="0.3657" style="stop-color:#D72127"/>
		<stop  offset="0.5543" style="stop-color:#C02026"/>
		<stop  offset="0.6768" style="stop-color:#B82025"/>
		<stop  offset="1" style="stop-color:#E62227"/>
	</linearGradient>
	<path class="st10" d="M1106.5,530.4l3.9,43.1h-1.9c0,0-6-29.8-36.8-29.8c-30.8,0-31.7,46.5-31.7,53c0,15,8.7,53.2,33.9,53.2
		c18.9,0,14.8-21.8,14.8-36.6c0-21.2-3-25.8-9.6-25.8v-2.7h49.3v3.3c0,0-10.1-0.6-10.1,12.6c0,13.2,0,23.1,0,39.3s7.7,16.7,7.7,16.7
		v3.2c0,0-34.4,0-54.9,0c-39.5,0-54.4-25.2-59.6-39.7v-54.8c0,0,9.1-34.1,55.2-34.1c17.3,0,20,4.4,29.9,4.4
		C1105.5,535.6,1106.5,530.4,1106.5,530.4z"/>
	<linearGradient id="SVGID_10_" gradientUnits="userSpaceOnUse" x1="1126.057" y1="435.8198" x2="1230.6272" y2="435.8198">
		<stop  offset="0.1659" style="stop-color:#E62227"/>
		<stop  offset="0.5122" style="stop-color:#B82025"/>
		<stop  offset="0.7235" style="stop-color:#CC2126"/>
		<stop  offset="0.9234" style="stop-color:#E62227"/>
	</linearGradient>
	<path class="st11" d="M1149.3,373.6c-15.4,0-21.4,0-21.4,0v2.1c0,0,9,0.6,9,17.6c0,16.9,0,70.7,0,84.6c0,13.9-6.4,18.8-8.6,18.8
		v2.4c0,0,65.1,0,74.1,0s13.5,1.5,13.5,1.5l12.8-46.9l-1.9-1.1c0,0-10.1,36.2-45.4,36.2c-10.3,0-13.5-9.9-13.5-9.9v-53.5
		c0,0,24.6-2.6,30.2,10.1l4.3-0.4l-4.5-31.1c0,0-0.4-0.2-2.6-0.2c-1.7,6.2-1.9,12.6-27.4,11.8c0,0,0-11.1,0-17.3s1.3-14.1,13.3-14.1
		s31.7,4.9,38.1,29.3l2.1-0.2l-8.1-42.2c0,0-0.2,2.4-12.4,2.4C1188.7,373.4,1149.3,373.6,1149.3,373.6z"/>
	<path class="st12" d="M1222,554.1v9.5H1374v-9.5C1374,554.1,1221.1,553.3,1222,554.1z"/>
	<path class="st12" d="M489.9,554.1v9.5h128.7v-9.5C618.6,554.1,489.2,553.3,489.9,554.1z"/>
	<linearGradient id="SVGID_11_" gradientUnits="userSpaceOnUse" x1="625.6899" y1="595.1447" x2="730.105" y2="595.1447">
		<stop  offset="0.2858" style="stop-color:#E62227"/>
		<stop  offset="0.3277" style="stop-color:#D72127"/>
		<stop  offset="0.4265" style="stop-color:#C02026"/>
		<stop  offset="0.4907" style="stop-color:#B82025"/>
		<stop  offset="1" style="stop-color:#E62227"/>
	</linearGradient>
	<path class="st13" d="M634.3,530.2h87.9l5.8,35.3l-2.2,0.3c0,0-8.3-24.8-31.1-24.3c0,0-0.8,80.8-1.1,92.6
		c-0.3,11.9,2.1,22.2,14.3,22.2v3.8h-58.4v-4.4c0,0,13.6,4.1,13.6-21.7s-0.3-92.5-0.3-92.5s-27,2.4-32,24.4l-2.8-0.6L634.3,530.2z"
		/>
	<linearGradient id="SVGID_12_" gradientUnits="userSpaceOnUse" x1="851.3061" y1="596.4258" x2="904.2083" y2="596.4258">
		<stop  offset="6.273091e-02" style="stop-color:#B82025"/>
		<stop  offset="6.837136e-02" style="stop-color:#BB2025"/>
		<stop  offset="0.1155" style="stop-color:#CD2126"/>
		<stop  offset="0.1733" style="stop-color:#DA2127"/>
		<stop  offset="0.253" style="stop-color:#E32227"/>
		<stop  offset="0.4565" style="stop-color:#E62227"/>
		<stop  offset="0.689" style="stop-color:#B82025"/>
		<stop  offset="0.9234" style="stop-color:#E62227"/>
	</linearGradient>
	<path class="st14" d="M893.2,623.7c0,15.5-0.9,33.2,9.1,33.2v2.3h-49.1c0,0,0-0.7,0-2.6c7.6,0,9.3-7.3,9.3-31.8
		c0-34.8,0-40.7,0-69.9c0-19.3-8.9-17.9-8.9-17.9v-3.3h48.8v3.8c0,0-9.1-1.2-9.1,17.8C893.3,574.3,893.2,601.9,893.2,623.7z"/>
	<linearGradient id="SVGID_13_" gradientUnits="userSpaceOnUse" x1="727.1494" y1="596.4258" x2="845.4529" y2="596.4258">
		<stop  offset="2.670874e-02" style="stop-color:#B82025"/>
		<stop  offset="0.2858" style="stop-color:#E62227"/>
		<stop  offset="0.3657" style="stop-color:#D72127"/>
		<stop  offset="0.5543" style="stop-color:#C02026"/>
		<stop  offset="0.6768" style="stop-color:#B82025"/>
		<stop  offset="1" style="stop-color:#E62227"/>
	</linearGradient>
	<path class="st15" d="M803.7,579.4h-34.6c0,14.7-0.1,30.7-0.1,44.4c0,15.5-0.9,33.2,9.1,33.2v2.3H729c0,0,0-0.7,0-2.6
		c7.6,0,9.3-7.3,9.3-31.8c0-34.8,0-40.7,0-69.9c0-19.3-8.9-17.9-8.9-17.9v-3.3h48.8v3.8c0,0-9.1-1.2-9.1,17.8c0,4.1-0.1,9-0.1,13.8
		l34.4,0 M803.7,568.7 M803.7,579.4c0,12.5,0,22.9,0,45.5c0,24.4-1.7,31.8-9.3,31.8c0,1.9,0,2.6,0,2.6h49.1v-2.3
		c-10,0-9.1-17.7-9.1-33.2c0-21.9,0.1-49.5,0.1-68.5c0-19,9.1-17.8,9.1-17.8v-3.8h-48.8v3.3c0,0,8.9-1.3,8.9,17.9
		c0,5.3,0,9.7,0,13.8 M803.7,579.4 M803.4,569.1 M803.7,579.4"/>
</g>
</svg>
